<?xml version="1.0" encoding="utf-8"?><svg viewBox="0 0 192 192" xmlns="http://www.w3.org/2000/svg" xmlns:xlink="http://www.w3.org/1999/xlink"><style>:root>svg{display:none}:root>svg:target{display:block}</style><svg fill="none" viewBox="0 0 16 10" id="arrow-down-orange" xmlns="http://www.w3.org/2000/svg"><path d="M8.007 9.533c-.294 0-.56-.106-.774-.32L.567 2.28c-.4-.427-.4-1.093.026-1.52.427-.4 1.094-.4 1.52.027L8.007 6.92 13.9.787C14.3.36 14.993.36 15.42.76c.427.4.427 1.093.027 1.52L8.78 9.213c-.213.214-.48.32-.773.32z" fill="#FF5722"/></svg><svg fill="none" viewBox="0 0 32 32" id="meeting-room" xmlns="http://www.w3.org/2000/svg"><path d="M28.25 7.5A3.754 3.754 0 0032 3.75 3.754 3.754 0 0028.25 0a3.754 3.754 0 00-3.75 3.75 3.754 3.754 0 003.75 3.75zm0-5c.69 0 1.25.56 1.25 1.25S28.94 5 28.25 5 27 4.44 27 3.75s.56-1.25 1.25-1.25zm-24.5 5A3.754 3.754 0 007.5 3.75 3.754 3.754 0 003.75 0 3.754 3.754 0 000 3.75 3.754 3.754 0 003.75 7.5zm0-5C4.44 2.5 5 3.06 5 3.75S4.44 5 3.75 5 2.5 4.44 2.5 3.75 3.06 2.5 3.75 2.5zm24.52 6.188h-.019c-2.587 0-3.568 1.883-4.186 3.727l-.966 2.898h-1.474v-2.876a3.754 3.754 0 00-3.75-3.75h-3.75a3.754 3.754 0 00-3.75 3.75v2.876H8.901c-.3-.9-.755-2.27-.966-2.898-.618-1.844-1.599-3.727-4.186-3.727H3.73A3.754 3.754 0 000 12.438v6.812a3.756 3.756 0 002.5 3.535v.027c.032 0 .064.003.095.005.14.046.282.083.428.112.428.198.727.631.727 1.134V32h2.5v-7.938c0-.368-.054-.725-.154-1.062h1.466c.69 0 1.25.56 1.25 1.25V32h2.5v-7.75a3.754 3.754 0 00-3.75-3.75H3.75c-.032 0-.064-.002-.095-.005a3.734 3.734 0 00-.428-.111A1.25 1.25 0 012.5 19.25v-6.813a1.25 1.25 0 011.239-1.25c.565-.002 1.147-.003 1.826 2.023.324.968 1.24 3.72 1.249 3.747l.284.855h17.804l.284-.855c.01-.028.925-2.779 1.25-3.747.678-2.026 1.26-2.024 1.825-2.023a1.25 1.25 0 011.239 1.25v6.813c0 .502-.299.936-.727 1.134a3.732 3.732 0 00-.427.111 1.211 1.211 0 01-.096.005H24.5a3.754 3.754 0 00-3.75 3.75V32h2.5v-7.75c0-.69.56-1.25 1.25-1.25h1.404c-.1.337-.154.694-.154 1.063V32h2.5v-7.938c0-.502.299-.935.727-1.133.146-.03.288-.066.427-.112.032-.002.064-.005.096-.005v-.027A3.756 3.756 0 0032 19.25v-6.813a3.754 3.754 0 00-3.73-3.75zm-15.395 3.75c0-.69.56-1.25 1.25-1.25h3.75c.69 0 1.25.56 1.25 1.25v2.874h-6.25v-2.874zM16 7.5a3.754 3.754 0 003.75-3.75A3.754 3.754 0 0016 0a3.754 3.754 0 00-3.75 3.75A3.754 3.754 0 0016 7.5zm0-5c.69 0 1.25.56 1.25 1.25S16.69 5 16 5s-1.25-.56-1.25-1.25S15.31 2.5 16 2.5z" fill="#10375C"/></svg><svg fill="none" viewBox="0 0 32 32" id="mentors" xmlns="http://www.w3.org/2000/svg"><ellipse cx="16" cy="8.667" rx="5.333" ry="6" stroke="#10375C" stroke-width="2.5"/><path d="M26.667 25.333c0 4.667-5.334 3.334-10.667 3.334S5.333 30 5.333 25.333c0-2.666 4.776-6 10.667-6s10.667 3.334 10.667 6z" stroke="#10375C" stroke-width="2.5"/></svg><svg viewBox="0 0 192 192" id="vk-logo" xmlns="http://www.w3.org/2000/svg"><g fill="none" fill-rule="evenodd"><path fill="#2787f5" d="M66.56 0h58.88C179.2 0 192 12.8 192 66.56v58.88c0 53.76-12.8 66.56-66.56 66.56H66.56C12.8 192 0 179.2 0 125.44V66.56C0 12.8 12.8 0 66.56 0z"/><path fill="#FFF" d="M157.234 66.146c.89-2.966 0-5.146-4.234-5.146h-14c-3.56 0-5.2 1.883-6.09 3.96 0 0-7.12 17.353-17.206 28.625-3.263 3.263-4.746 4.301-6.526 4.301-.89 0-2.178-1.038-2.178-4.004V66.146c0-3.56-1.033-5.146-4-5.146H81c-2.224 0-3.562 1.652-3.562 3.218 0 3.375 5.042 4.153 5.562 13.645V98.48c0 4.52-.816 5.34-2.596 5.34-4.746 0-16.29-17.432-23.138-37.377C55.924 62.566 54.578 61 51 61H37c-4 0-4.8 1.883-4.8 3.96 0 3.708 4.747 22.1 22.1 46.424C65.869 127.995 82.168 137 97 137c8.9 0 10-2 10-5.445V119c0-4 .843-4.798 3.661-4.798 2.077 0 5.636 1.038 13.943 9.047C134.096 132.742 135.66 137 141 137h14c4 0 6-2 4.846-5.947-1.262-3.934-5.794-9.64-11.808-16.406-3.263-3.857-8.158-8.01-9.64-10.086-2.077-2.67-1.484-3.857 0-6.23 0 0 17.056-24.027 18.836-32.185z"/></g></svg></svg>